<svg width="1241" height="1241" viewBox="0 0 1241 1241" fill="none" xmlns="http://www.w3.org/2000/svg">
<path fill-rule="evenodd" clip-rule="evenodd" d="M1090 322.822L824.216 226.174V344.299L971.871 397.992V849.012L617.498 977.876V328.191L322.187 435.577V811.427L440.311 854.382V682.564H499.374V1053.05L617.498 1096L1090 924.183V322.822ZM499.374 489.27L440.311 510.747V623.502H499.374V489.27Z" fill="#7756FB"/>
<path fill-rule="evenodd" clip-rule="evenodd" d="M1090 322.822L824.216 226.174V344.299L971.871 397.992V849.012L617.498 977.876V328.191L322.187 435.577V811.427L440.311 854.382V682.564H499.374V1053.05L617.498 1096L1090 924.183V322.822ZM499.374 489.27L440.311 510.747V623.502H499.374V489.27Z" fill="#7756FB"/>
<path d="M145.004 322.817L145 924.178L440.315 1031.56V913.44L263.129 849.008V397.988L617.502 269.124L647.033 279.863V908.071L912.813 811.423V693.299L765.158 746.992V751.005V204.693L617.502 151L263.129 279.863L145.004 322.817Z" fill="#7756FB"/>
</svg>
